<?xml version="1.0" encoding="UTF-8" standalone="no"?>
<svg width="121px" height="301px" viewBox="0 0 121 301" version="1.1" xmlns="http://www.w3.org/2000/svg" xmlns:xlink="http://www.w3.org/1999/xlink" xmlns:sketch="http://www.bohemiancoding.com/sketch/ns">
    <!-- Generator: Sketch 3.1.1 (8761) - http://www.bohemiancoding.com/sketch -->
    <title>Slice 2</title>
    <desc>Created with Sketch.</desc>
    <defs>
        <path id="path-1" d="M46.4916992,8.47265625 C46.4916992,8.47265625 42.7749023,14.2792969 44.2709961,14.8886719 C45.7670898,15.4980469 73.2080087,16.3466797 75.0424805,15.0458984 C76.8769522,13.7451172 72.4794922,7.61181641 72.4794922,7.61181641 L46.4916992,8.47265625 Z"></path>
        <linearGradient x1="50%" y1="0%" x2="50%" y2="100%" id="linearGradient-2">
            <stop stop-color="#9F4F37" offset="0%"></stop>
            <stop stop-color="#3D212B" offset="100%"></stop>
        </linearGradient>
        <linearGradient x1="3.061617e-15%" y1="50%" x2="100%" y2="50%" id="linearGradient-3">
            <stop stop-color="#E1E1E1" offset="0%"></stop>
            <stop stop-color="#FFFFFF" offset="49.2267219%"></stop>
            <stop stop-color="#D0D0D0" offset="95.836655%"></stop>
        </linearGradient>
        <linearGradient x1="50%" y1="100%" x2="50%" y2="0%" id="linearGradient-4">
            <stop stop-color="#FFFFFF" stop-opacity="0.199643342" offset="0%"></stop>
            <stop stop-color="#FFFFFF" stop-opacity="0" offset="100%"></stop>
        </linearGradient>
        <linearGradient x1="50%" y1="100%" x2="50%" y2="0%" id="linearGradient-5">
            <stop stop-color="#FFFFFF" stop-opacity="0.144842618" offset="0%"></stop>
            <stop stop-color="#FFFFFF" stop-opacity="0" offset="100%"></stop>
        </linearGradient>
        <linearGradient x1="50%" y1="100%" x2="50%" y2="0%" id="linearGradient-6">
            <stop stop-color="#FFFFFF" stop-opacity="0.107959692" offset="0%"></stop>
            <stop stop-color="#000000" stop-opacity="0" offset="100%"></stop>
        </linearGradient>
    </defs>
    <g id="Page-1" stroke="none" stroke-width="1" fill="none" fill-rule="evenodd" sketch:type="MSPage">
        <path d="M70.9541018,15.5429688 C67.8021446,15.4588682 62.0704426,16.5166005 58.5507815,16.2036133 C51.1215823,15.5429688 47.1464844,15.5859375 47.1464844,15.5859375 C47.1464844,15.5859375 47.0657638,16.841797 46.8923304,19.0406014 C46.2704919,26.9243253 44.4567814,46.9300959 40.8984375,64.6347656 C36.3476562,87.2773438 28.4667969,122.435547 24.6347656,134.234375 C20.8027344,146.033203 21.1953125,177.058594 21.1953125,182.714844 L21.1953125,282.142578 C21.1953125,282.142578 19.9296872,300.605469 58.5507812,300.605469 C97.1718753,300.605469 99.8691404,288.720703 99.8691406,281.519531 C99.8691409,274.318359 99.4355469,181.425781 99.4355469,181.425781 C99.4355469,181.425781 98.1953122,141.753906 95.9082031,133.376953 C93.621094,125 81.3437497,72.7675781 79.2089844,65.3457031 C77.074219,57.9238281 73.1874997,26.0859375 73.1875,15.5429688 C73.1875,14.2234471 72.3614957,15.5805209 70.9541018,15.5429688 Z" id="Path-3" stroke="#979797" fill-opacity="0.390000582" fill="#D8D8D8" sketch:type="MSShapeGroup"></path>
        <g id="Path-2">
            <use stroke="#858585" stroke-width="1" fill-opacity="0.6" fill="#FFFFFF" fill-rule="evenodd" sketch:type="MSShapeGroup" xlink:href="#path-1"></use>
            <use stroke="none" fill="none" xlink:href="#path-1"></use>
        </g>
        <path d="M44.0664063,1.50292969 L74.7314453,1.15478516 C74.7314453,1.15478516 79.2705078,7.31494141 77.0009766,8.49072266 C74.7314453,9.66650391 44.4199219,10.0581055 41.9931641,9.27441406 C39.5664063,8.49072266 44.0664063,1.50292969 44.0664063,1.50292969 Z" id="Path-1" fill="#4B6BAB" sketch:type="MSShapeGroup"></path>
        <path d="M41.8701167,65.8222656 C41.8701167,65.8222656 63.5244153,70.9267578 79.2187513,65.8222656 C85.0000013,88.0761719 94.5683594,130.316406 96.6464844,134.333984 C98.7246094,138.351562 99.5957031,172.291016 99.5957031,172.291016 C99.5957031,172.291016 59.5654297,179.714844 21.65625,172.291016 C20.5654297,154.820312 20.4531249,156.165039 25,135.582031 C29.5468751,114.999023 41.8701167,65.8222656 41.8701167,65.8222656 Z" id="Path-4" fill-opacity="0.800000191" fill="url(#linearGradient-2)" sketch:type="MSShapeGroup"></path>
        <path d="M21.8193359,172.308594 C21.8193359,172.308594 39.6725828,175.236312 59.6450195,175.543945 C75.6762305,175.790872 93.8126015,173.646091 99.6069336,172.242676 C99.6069336,179.874023 99.6865234,266.342773 99.6865234,266.342773 C99.6865234,266.342773 66.9013672,277.515137 21.7197266,266.315918 C21.7197266,253.118652 21.8193359,172.308594 21.8193359,172.308594 Z" id="Path-5" stroke="#979797" fill="url(#linearGradient-3)" sketch:type="MSShapeGroup"></path>
        <path d="M41.8994141,270.464844 C31.3750715,269.190902 21.6972656,266.85498 21.6972656,266.85498 L21.4794922,283.090332 C21.4794922,283.090332 20.7177734,300.620605 58.6640625,300.620605 C96.6103516,300.620605 99.8320369,287.084473 99.8320312,285.087402 C99.8320256,283.090332 99.8320332,266.85498 99.8320332,266.85498 C99.8320332,266.85498 82.2119122,271.384766 59.1782227,271.384766 C53.7031232,271.384766 47.9815948,271.201075 41.8994141,270.464844 Z" id="Path-6" stroke="#979797" fill-opacity="0.800000191" fill="#41232B" sketch:type="MSShapeGroup"></path>
        <path d="M43.0898438,220.867188 C43.0898438,220.867188 44.6992188,201.69043 64.8496094,200.012695 C85,198.334961 89.0498047,209.166992 90.7158203,214.422852 C92.3818359,219.678711 91.5986328,221.65918 91.5986328,221.65918 C91.5986328,221.65918 85.2216797,214.19336 71.4511719,221.083984 C57.6806641,227.974609 43.0898438,220.867188 43.0898438,220.867188 Z" id="Path-7" fill="#DE4C2E" sketch:type="MSShapeGroup"></path>
        <path d="M52.2138672,247.933594 C44.822131,240.735608 42.3085938,230.160156 42.3085938,230.160156 C42.3085938,230.160156 51.6931642,239.219554 69.0605469,232.772461 C76.0976562,230.160156 77.5361328,229.146484 91.2167969,229.146484 C91.2167969,243.986328 80.1064453,253.717773 70.0693359,254.762695 C66.1342752,255.172358 56.9806156,252.575397 52.2138672,247.933594 Z" id="Path-8" fill="#3A5FB6" sketch:type="MSShapeGroup"></path>
        <path d="M31.3300781,196.915039 C31.3300781,196.915039 45.3253183,198.941895 52.0838632,198.759644 C53.3236839,198.726211 54.7199237,198.801866 54.7058114,198.941895 C54.6548957,199.447106 50.5107422,202.041992 50.5107422,202.041992 C50.5107422,202.041992 39.2128906,208.851562 39.2128906,226.925781 C39.2128906,245 51.6337891,251.581055 54.2890625,252.811523 C56.9443359,254.041992 27.0820313,251.081055 26.0410156,251.081055 C25,251.081055 31.3300781,196.915039 31.3300781,196.915039 Z" id="Path-9" fill="#DE4C2E" sketch:type="MSShapeGroup"></path>
        <path d="M34.5078125,180.100586 L42.9658203,180.928711 C42.9658203,180.928711 49.6601562,186.750977 42.0839844,190.572266 C34.5078125,190.572266 36.2519531,189.757812 36.2519531,189.757812 L35.4033203,195.036133 L31.7910156,194.601562 L34.5078125,180.100586 Z" id="Path-10" fill="#3B57A6" sketch:type="MSShapeGroup"></path>
        <path d="M60.2871094,181.102539 C60.2871094,181.102539 50.0566406,181.352539 49,181.352539 C47.9433594,181.352539 45.2441406,187.609375 45.2441406,191.353516 C45.2441406,195.097656 46.109375,195.595459 46.109375,195.595459 L57.0405273,196.030762 L57.3234863,192.444336 L49.4206543,192.338135 C49.4206543,192.338135 49.1184082,190.014404 49.9648438,190.014404 C50.8112793,190.014404 58.0581055,190.226562 58.0581055,190.226562 L58.4689941,187.320312 L50.3757324,187.233398 C50.3757324,187.233398 49.8752441,184.498535 51.5732422,184.498535 C53.2712402,184.498535 59.407959,184.62915 59.407959,184.62915 L60.2871094,181.102539 Z" id="Path-11" fill="#3B57A6" sketch:type="MSShapeGroup"></path>
        <path d="M61.3435059,182.066895 L57.8903809,195.877441 L62.2390137,195.96167 L63.3955078,190.851074 L70.177002,191.068848 C70.177002,191.068848 77.9001465,187.819092 72.0493164,181.704346 C63.7966309,181.704346 61.3435059,182.066895 61.3435059,182.066895 Z" id="Path-12" fill="#3B57A6" sketch:type="MSShapeGroup"></path>
        <path d="M87.4414062,180.755371 C87.4414062,180.755371 79.2583008,180.450439 78.5427246,180.755371 C77.8271484,181.060303 73.3449707,185.672608 76.4772949,189.659668 C82.5388183,189.659668 83.0583496,189.897217 83.0583496,189.897217 C83.0583496,189.897217 84.1601563,192.093262 82.1875,192.093262 C80.2148437,192.093261 73.4033203,191.900146 73.4033203,191.900146 L73.3381348,195.57666 L82.6286621,196.009033 C82.6286621,196.009033 90.8382568,192.624268 85.6140137,186.544434 C78.2265625,186.544434 79.1628418,186.655273 79.1628418,186.655273 C79.1628418,186.655273 78.1845703,183.243164 80.1860352,183.56958 C82.1875,183.895996 87.1386719,183.879883 87.1386719,183.879883 L87.4414062,180.755371 Z" id="Path-13" fill="#3B57A6" sketch:type="MSShapeGroup"></path>
        <path d="M88.5349121,180.665527 L91.4191895,180.697754 L89.9660645,195.020264 L86.8037109,195.095947 L88.5349121,180.665527 Z" id="Path-14" fill="#3B57A6" sketch:type="MSShapeGroup"></path>
        <path d="M50.8330078,257.933594 C42.8748765,257.399762 26.9863281,254.658203 26.9863281,254.658203 L26.9863281,258.291016 C26.9863281,258.291016 54.0683594,265.060547 77.1123047,261.675781 C77.1123047,256.59375 75.8144531,257.933594 75.8144531,257.933594 C75.8144531,257.933594 59.1509181,258.491559 50.8330078,257.933594 Z" id="Path-15" fill="#3B57A6" sketch:type="MSShapeGroup"></path>
        <path d="M50.8466797,264.275391 C42.8885483,263.741559 27,261 27,261 L27,264.632812 C27,264.632812 54.0820313,271.402344 77.1259766,268.017578 C77.1259766,262.935547 75.828125,264.275391 75.828125,264.275391 C75.828125,264.275391 59.16459,264.833356 50.8466797,264.275391 Z" id="Path-16" fill="#3B57A6" sketch:type="MSShapeGroup"></path>
        <path d="M50.9082031,26.0410156 C50.9082031,26.0410156 40.2832031,112.927734 36.4296875,131.738281 C32.5761719,150.548828 34.2802734,163.4375 38.9746094,166.527344 C43.6689453,169.617188 50.9082031,160.285154 50.9082032,153.667967 C50.9082033,147.050779 57.9824218,103.826172 57.9824219,80.6230469 C57.982422,57.4199219 57.5664062,23.7851562 57.5664062,18.9296875 C57.5664063,14.0742188 50.9082031,26.0410156 50.9082031,26.0410156 Z" id="Path-17" fill="url(#linearGradient-4)" sketch:type="MSShapeGroup"></path>
        <path d="M64.3652344,51.6269531 C64.3652344,51.6269531 61.4023437,126.472656 67.3242187,141.300781 C73.2460937,156.128906 70.6562502,159.089844 73.2460938,163.724609 C75.8359373,168.359375 89.422363,162.105469 91.1962888,160.450683 C92.9702146,158.795898 98.8027346,151.546875 93.2304688,138.205078 C87.6582029,124.863281 70.4609373,68.2363281 70.4609375,51.0605469 C70.4609377,33.8847656 65.1503906,8.50195313 65.1503906,25.6992188 C65.1503906,42.8964844 64.3652344,51.6269531 64.3652344,51.6269531 Z" id="Path-18" fill="url(#linearGradient-5)" sketch:type="MSShapeGroup"></path>
        <path d="M43.15625,296.572266 C33.418648,295.157273 30.8671875,289.691406 30.8671875,289.691406 C30.8671875,289.691406 45.8749458,278.409098 83.0175781,285.105469 C87.8376322,285.974467 87.5322076,288.193447 93.3261719,289.691406 C93.3261719,297.761558 61.6458922,299.259037 43.15625,296.572266 Z" id="Path-19" fill-opacity="0.720000267" fill="#A35A4D" sketch:type="MSShapeGroup"></path>
        <path d="M46.8632812,56.1074219 C46.8632812,56.1074219 30.4902344,148.916016 30.4902344,163.720703 C30.4902344,178.525391 49.5449219,194.285156 51.7851562,183.75 C54.0253906,173.214844 52.2851562,151.679688 52.2851562,131.263672 C52.2851562,110.847656 54.7226562,58.6210938 57.1386719,55.2265625 C59.5546875,51.8320313 46.8632812,56.1074219 46.8632812,56.1074219 Z" id="Path-20" fill="url(#linearGradient-6)" sketch:type="MSShapeGroup"></path>
    </g>
</svg>