<?xml version="1.0" encoding="UTF-8" standalone="no"?>
<svg width="733px" height="328px" viewBox="0 0 733 328" version="1.1" xmlns="http://www.w3.org/2000/svg" xmlns:xlink="http://www.w3.org/1999/xlink" xmlns:sketch="http://www.bohemiancoding.com/sketch/ns">
    <!-- Generator: Sketch 3.1.1 (8761) - http://www.bohemiancoding.com/sketch -->
    <title>Slice 2</title>
    <desc>Created with Sketch.</desc>
    <defs>
        <linearGradient x1="50%" y1="0%" x2="50%" y2="100%" id="linearGradient-1">
            <stop stop-color="#3D1800" offset="0%"></stop>
            <stop stop-color="#6C3300" offset="100%"></stop>
        </linearGradient>
    </defs>
    <g id="Page-1" stroke="none" stroke-width="1" fill="none" fill-rule="evenodd" sketch:type="MSPage">
        <path d="M112.050781,18.7617188 L15,277 L719,277 L621.394531,11.9296875 L112.050781,18.7617188 Z" id="Rectangle-1" fill="url(#linearGradient-1)" sketch:type="MSShapeGroup"></path>
        <rect id="Rectangle-2" fill="#481F00" sketch:type="MSShapeGroup" x="14" y="277" width="705" height="30"></rect>
        <path d="M20.629852,260.065485 C123.941371,258.348535 226.096509,262.831273 329.347937,260.065485 C365.089786,259.104217 400.187916,253.785415 435.88027,255.660201 C467.904921,257.335892 500.056774,261.540287 532.3177,262.038816 C593.296897,262.979674 653.734196,261.289876 714.370148,261.289876" id="Path-1" stroke="#481F00" stroke-width="3" sketch:type="MSShapeGroup"></path>
        <path d="M24.6630209,249.294209 C126.777771,247.577259 227.73418,252.059997 329.789169,249.294209 C365.115188,248.332941 399.802309,243.014139 435.078181,244.888926 C466.73058,246.564616 498.514266,250.769011 530.401463,251.26754 C590.675334,252.208398 650.405595,250.5186 710.336979,250.5186" id="Path-3" stroke="#481F00" stroke-width="3" sketch:type="MSShapeGroup"></path>
        <path d="M27.4862391,241.754316 C128.76325,240.037366 228.880549,244.520104 330.098032,241.754316 C365.132969,240.793048 399.532384,235.474246 434.516719,237.349032 C465.908541,239.024723 497.43451,243.229118 529.060097,243.727647 C588.84024,244.668505 648.075574,242.978707 707.513761,242.978707" id="Path-4" stroke="#481F00" stroke-width="2" sketch:type="MSShapeGroup"></path>
        <path d="M17,269.759633 C121.388612,268.042684 224.622606,272.525421 328.950827,269.759633 C365.066924,268.798365 400.534962,263.479563 436.60215,265.35435 C468.961829,267.03004 501.445032,271.234435 534.042314,271.732965 C595.656303,272.673822 656.729937,270.984024 718,270.984024" id="Path-2" stroke="#481F00" stroke-width="2" sketch:type="MSShapeGroup"></path>
        <path d="M32.3260417,228.828785 C132.166929,227.111835 230.845754,231.594573 330.62751,228.828785 C365.163452,227.867517 399.069655,222.548715 433.554213,224.423501 C464.499331,226.099192 495.5835,230.303587 526.760612,230.802116 C585.694364,231.742974 644.081253,230.053176 702.673958,230.053176" id="Path-5" stroke="#481F00" stroke-width="4" sketch:type="MSShapeGroup"></path>
        <path d="M62.829282,171.453932 C154.643286,170.90989 246.204214,172.330314 337.981171,171.453932 C369.833939,171.149339 401.23833,169.463995 433.112898,170.05805 C461.640817,170.589018 490.009476,171.921245 518.682624,172.079212 C572.825911,172.377337 626.8807,171.841899 680.877477,171.841899" id="Path-6" stroke="#481F00" stroke-width="4" sketch:type="MSShapeGroup"></path>
        <path d="M58.4653274,183.453932 C151.593439,182.90989 244.470625,184.330314 337.561326,183.453932 C369.870694,183.149339 401.726391,181.463995 434.058275,182.05805 C462.994944,182.589018 491.767868,183.921245 520.851386,184.079212 C575.769152,184.377337 630.600302,183.841899 685.370726,183.841899" id="Path-10" stroke="#481F00" stroke-width="3" sketch:type="MSShapeGroup"></path>
        <path d="M50.8284068,204.453932 C146.256206,203.90989 241.436844,205.330314 336.826595,204.453932 C369.935015,204.149339 402.580498,202.463995 435.712685,203.05805 C465.364667,203.589018 494.845053,204.921245 524.646721,205.079212 C580.919826,205.377337 637.109605,204.841899 693.233912,204.841899" id="Path-11" stroke="#481F00" stroke-width="2" sketch:type="MSShapeGroup"></path>
        <path d="M73.7391685,141.453932 C162.267905,140.90989 250.538186,142.330314 339.030786,141.453932 C369.742053,141.149339 400.018177,139.463995 430.749456,140.05805 C458.255499,140.589018 485.613498,141.921245 513.260717,142.079212 C565.467806,142.377337 617.581695,141.841899 669.644354,141.841899" id="Path-12" stroke="#481F00" stroke-width="3" sketch:type="MSShapeGroup"></path>
        <path d="M88.2856838,101.453932 C172.434063,100.90989 256.316817,102.330314 340.430272,101.453932 C369.619538,101.149339 398.391306,99.4639948 427.5982,100.05805 C453.741741,100.589018 479.752193,101.921245 506.031509,102.079212 C555.657,102.377337 605.183022,101.841899 654.666857,101.841899" id="Path-13" stroke="#481F00" stroke-width="5" sketch:type="MSShapeGroup"></path>
        <path d="M95.5589414,81.4539316 C177.517142,80.9098897 259.206132,82.3303141 341.130015,81.4539316 C369.55828,81.149339 397.577871,79.4639948 426.022571,80.0580498 C451.484863,80.5890181 476.821541,81.9212453 502.416905,82.0792121 C550.751597,82.3773373 598.983685,81.8418988 647.178108,81.8418988" id="Path-14" stroke="#481F00" stroke-width="3" sketch:type="MSShapeGroup"></path>
        <path d="M102.832199,61.4539316 C182.600221,60.9098897 262.095447,62.3303141 341.829758,61.4539316 C369.497022,61.149339 396.764436,59.4639948 424.446943,60.0580498 C449.227984,60.5890181 473.890888,61.9212453 498.802301,62.0792121 C545.846194,62.3773373 592.784349,61.8418988 639.689359,61.8418988" id="Path-15" stroke="#481F00" stroke-width="3" sketch:type="MSShapeGroup"></path>
        <path d="M68.9639635,154.584788 C158.930646,154.040746 248.641227,155.46117 338.571375,154.584788 C369.782271,154.280195 400.552232,152.594851 431.783923,153.188906 C459.737236,153.719874 487.537597,155.052101 515.63386,155.210068 C568.688413,155.508193 621.651825,154.972755 674.561038,154.972755" id="Path-7" stroke="#481F00" stroke-width="2" sketch:type="MSShapeGroup"></path>
        <path d="M46.1780036,217.241608 C143.006167,216.697566 239.589462,218.117991 336.379191,217.241608 C369.974182,216.937015 403.100596,215.251671 436.720116,215.845726 C466.807679,216.376695 496.718865,217.708922 526.95784,217.866889 C584.056261,218.165014 641.07336,217.629575 698.022097,217.629575" id="Path-8" stroke="#481F00" stroke-width="3" sketch:type="MSShapeGroup"></path>
        <path d="M79.4805604,125.666255 C166.280405,125.122213 252.818965,126.542638 339.583152,125.666255 C369.693697,125.361663 399.376064,123.676318 429.505681,124.270373 C456.473955,124.801342 483.300088,126.133569 510.407407,126.291536 C561.59556,126.589661 612.688039,126.054222 663.732857,126.054222" id="Path-9" stroke="#481F00" sketch:type="MSShapeGroup"></path>
        <path d="M15.8125,296.669079 C35.2250308,297.136479 54.9125234,295.769219 74.2604026,296.669079 C93.1540854,297.547815 112.49607,302.954138 131.718518,301.494447 C140.448749,300.831501 141.66354,294.584937 152.833978,296.283743 C159.92758,297.362541 162.824421,301.799167 170.487123,302.652622 C185.189327,304.290121 202.896856,297.964484 217.558295,297.054416 C247.511263,295.19517 320.215362,301.136541 340.994459,295.342049 C347.892302,293.418506 370.348054,295.342049 377.294418,295.342049 C405.482474,295.342049 436.337768,293.197098 463.825105,297.080394 C480.747636,299.471138 503.6793,296.814268 520.891187,297.080394 C554.38133,297.59821 588.854823,301.484499 622.431706,299.78208 C641.052777,298.837953 662.263037,296.694442 680.235277,294.183874 C687.991909,293.100339 708.570535,295.729551 719,295.729551" id="Path-16" stroke="#2C1300" stroke-width="2" sketch:type="MSShapeGroup" transform="translate(367.406250, 298.422003) scale(1, -1) translate(-367.406250, -298.422003) "></path>
        <path d="M20.8320312,286.699219 C55.2876133,287.757591 86.6088586,284.605469 121.457031,284.605469 C127.971812,284.605469 132.838308,290.655361 140.613281,288.4375 C144.403611,287.356284 173.696077,283.624991 178.582031,284.605469 C192.041871,287.30649 236.362898,287.96764 247.160156,284.257812 C263.375275,278.686464 290.172594,287.293672 310.46875,280.425781 C320.252621,277.115077 344.138331,290.563751 363.976562,278.6875" id="Path-17" stroke="#1F0D00" stroke-width="2" sketch:type="MSShapeGroup"></path>
        <path d="M493.902344,292.710938 C500.413766,291.397677 507.124712,293.482087 513.667969,292.710938 C525.282758,291.342088 632.78471,286.910929 635.101562,286.136719 C643.514161,283.325526 644.936908,278.167969 655.304688,278.167969" id="Path-19" stroke="#2E1400" stroke-width="2" sketch:type="MSShapeGroup"></path>
    </g>
</svg>